<?xml version="1.0" encoding="utf-8"?>
<!-- Generator: Adobe Illustrator 22.0.0, SVG Export Plug-In . SVG Version: 6.00 Build 0)  -->
<svg version="1.1" xmlns="http://www.w3.org/2000/svg" xmlns:xlink="http://www.w3.org/1999/xlink" x="0px" y="0px"
	 viewBox="0 0 512 512" style="enable-background:new 0 0 512 512;" xml:space="preserve">
<style type="text/css">
	.st0{fill:#EFEFEF;}
	.st1{fill:#EDEDED;}
	.st2{fill:#E1902B;}
	.st3{fill:#827382;}
	.st4{fill:#98CDE6;}
	.st5{clip-path:url(#SVGID_2_);fill:#43B06D;}
	.st6{clip-path:url(#SVGID_2_);fill:#4D917B;}
	.st7{fill:#FFDBC5;}
	.st8{fill:#E8B494;}
	.st9{fill:#DB4646;}
	.st10{fill:#E7AD84;}
	.st11{fill:#9EC853;}
	.st12{fill:#EBB290;}
	.st13{fill:#2961A5;}
	.st14{fill:#D49670;}
	.st15{fill:#4D917B;}
	.st16{fill:#78BEDE;}
	.st17{fill:#D4CDC1;}
	.st18{fill:#A18FA1;}
	.st19{fill:#3D2A3D;}
	.st20{fill:#FF826E;}
	.st21{fill:#E6A585;}
	.st22{fill:#142A7A;}
	.st23{fill:#FFD66C;}
	.st24{fill:#00D3D5;}
	.st25{fill:#B9EAF0;}
	.st26{fill:#EDB87B;}
	.st27{clip-path:url(#SVGID_4_);}
	.st28{fill:#D9904C;}
	.st29{fill:#F7B58D;}
	.st30{fill:#F7C8AB;}
	.st31{fill:#BABABA;}
	.st32{fill:#163A63;}
	.st33{fill:#F5BB47;}
	.st34{fill:#FFE999;}
	.st35{clip-path:url(#SVGID_6_);}
	.st36{fill:#B3B3B3;}
	.st37{fill:#F2C9B1;}
	.st38{clip-path:url(#SVGID_8_);}
	.st39{fill:#F2D7C4;}
	.st40{fill:#5D5660;}
	.st41{fill:#3B2D3F;}
	.st42{fill:#997999;}
	.st43{fill:#170F17;}
	.st44{clip-path:url(#SVGID_10_);}
</style>
<g id="Layer_6">
</g>
<g id="Layer_9">
</g>
<g id="Layer_7">
	<g>
		<g>
			<g>
				<path class="st9" d="M441.9,187.5c-0.5-52.8-43.6-95.2-96.4-94.7c-43.4,0.4-79.7,29.6-91,69.3c-12-39.5-48.9-68-92.2-67.7
					c-52.8,0.5-95.2,43.6-94.7,96.4c0.3,29.2,13.6,55.2,34.4,72.5c0.8,1,1.5,2,2.4,3l109.8,130.5c24.2,28.8,63.4,28.4,87.1-0.8
					l107.5-132.5c2.5-3.1,4.6-6.1,6.3-9.1C431.9,237.2,442.2,213.5,441.9,187.5z"/>
			</g>
			<g>
				<defs>
					<path id="SVGID_9_" d="M442.9,187.5c-0.5-52.8-43.6-95.2-96.4-94.7c-43.4,0.4-79.7,29.6-91,69.3c-12-39.5-48.9-68-92.2-67.7
						c-52.8,0.5-95.2,43.6-94.7,96.4c0.3,29.2,13.6,55.2,34.4,72.5c0.8,1,1.5,2,2.4,3l109.8,130.5c24.2,28.8,63.4,28.4,87.1-0.8
						l107.5-132.5c2.5-3.1,4.6-6.1,6.3-9.1C432.9,237.2,443.2,213.5,442.9,187.5z"/>
				</defs>
				<clipPath id="SVGID_2_">
					<use xlink:href="#SVGID_9_"  style="overflow:visible;"/>
				</clipPath>
				<g style="clip-path:url(#SVGID_2_);">
					<g>
						<g>
							<path class="st7" d="M344.9,163.9c3.6-2.6,4.4-7.6,1.8-11.3l0,0c-2.6-3.6-7.6-4.4-11.2-1.8L275,194.4
								c-3.6,2.6-4.4,7.6-1.8,11.2l0,0c2.6,3.6,7.6,4.4,11.2,1.8L344.9,163.9z"/>
							<path class="st7" d="M280.1,228.7c2.8,3.1,7.6,3.4,10.7,0.6l46.5-41.6c3.1-2.8,3.4-7.6,0.6-10.7l-0.1-0.1
								c-2.8-3.1-7.6-3.4-10.7-0.6l-46.5,41.6c-3.1,2.8-3.4,7.6-0.6,10.7L280.1,228.7z"/>
							<path class="st7" d="M360.9,151.3c4.4-0.7,7.3-4.9,6.6-9.3l0,0c-0.7-4.4-4.9-7.3-9.3-6.6l-48.3,8.1c-4.4,0.7-7.3,4.9-6.6,9.3
								l0,0c0.7,4.4,4.9,7.3,9.3,6.6L360.9,151.3z"/>
							<path class="st7" d="M352.4,193.1c2.9-3.4,2.5-8.5-0.9-11.3l0,0c-3.4-2.9-8.5-2.5-11.3,0.9l-40.2,47
								c-2.9,3.4-2.5,8.5,0.9,11.3l0,0c3.4,2.9,8.5,2.5,11.3-0.9L352.4,193.1z"/>
							<path class="st7" d="M377.7,180.2c2.3-3.3,1.4-7.8-1.8-10l0,0c-3.3-2.3-7.8-1.4-10,1.8l-42.6,61.6c-2.3,3.3-1.4,7.8,1.8,10
								l0,0c3.3,2.3,7.8,1.4,10-1.8L377.7,180.2z"/>
						</g>
						<path class="st7" d="M349.1,205c3.5,3.9,9.4,4.2,13.3,0.7l30.5-27.3c3.9-3.5,4.2-9.4,0.7-13.3l-25-28
							c-3.5-3.9-9.4-4.2-13.3-0.7l-30.5,27.3c-3.9,3.5-4.2,9.4-0.7,13.3L349.1,205z"/>
					</g>
					
						<rect x="361.9" y="120.2" transform="matrix(0.745 -0.667 0.667 0.745 5.158 298.5448)" class="st7" width="62.4" height="44.6"/>
					
						<rect x="386.3" y="113.9" transform="matrix(0.7451 -0.6669 0.6669 0.7451 11.2043 301.6327)" class="st8" width="27.8" height="44.6"/>
					<path class="st0" d="M437.8,139.7l-14.6,13.1c-4.5,4-11.3,3.6-15.3-0.8l-22.4-25c-4-4.5-3.6-11.3,0.8-15.3l14.6-13.1
						L437.8,139.7z"/>
				</g>
				<g style="clip-path:url(#SVGID_2_);">
					<g>
						<path class="st30" d="M201.9,305.5c-2.7,3.9-8.1,4.9-12,2.2l0,0c-3.9-2.7-4.9-8.1-2.2-12l45.3-65.9c2.7-3.9,8.1-4.9,12-2.2
							l0,0c3.9,2.7,4.9,8.1,2.2,12L201.9,305.5z"/>
						<path class="st30" d="M223.1,296.4c-3.4,3.4-8.9,3.4-12.2,0l0,0c-3.4-3.4-3.4-8.9,0-12.2l46.7-46.7c3.4-3.4,8.9-3.4,12.2,0
							l0,0c3.4,3.4,3.4,8.9,0,12.2L223.1,296.4z"/>
						<path class="st30" d="M189.9,317.5c-1.1,4.7-5.7,7.6-10.4,6.5l0,0c-4.7-1.1-7.6-5.7-6.5-10.4l11.5-51.3
							c1.1-4.7,5.7-7.6,10.4-6.5l0,0c4.7,1.1,7.6,5.7,6.5,10.4L189.9,317.5z"/>
						
							<rect x="146.9" y="302.5" transform="matrix(0.7071 -0.7071 0.7071 0.7071 -174.211 231.4365)" class="st30" width="90.8" height="47"/>
						<path class="st30" d="M228.7,312c-3.7,3-9.2,2.4-12.2-1.3l0,0c-3-3.7-2.4-9.2,1.3-12.2l51.4-41.5c3.7-3,9.2-2.4,12.2,1.3l0,0
							c3,3.7,2.4,9.2-1.3,12.2L228.7,312z"/>
						<path class="st30" d="M213.8,342.5c-3.4,2.6-8.3,1.9-10.9-1.5l0,0c-2.6-3.4-1.9-8.3,1.5-10.9l64.6-48.9
							c3.4-2.6,8.3-1.9,10.9,1.5l0,0c2.6,3.4,1.9,8.3-1.5,10.9L213.8,342.5z"/>
					</g>
					
						<rect x="155.4" y="326.3" transform="matrix(0.7071 -0.7071 0.7071 0.7071 -198.0255 221.5691)" class="st8" width="26.1" height="47"/>
					<path class="st0" d="M171.5,394.4l16.5-16.5c5-5,5-13.2,0-18.3l-28.2-28.2c-5-5-13.2-5-18.3,0L125,347.9L171.5,394.4z"/>
				</g>
			</g>
		</g>
	</g>
</g>
</svg>
